<mxfile host="65bd71144e">
    <diagram id="Ht1M8jgEwFfnCIfOTk4-" name="Page-1">
        <mxGraphModel dx="1206" dy="827" grid="1" gridSize="10" guides="1" tooltips="1" connect="1" arrows="1" fold="1" page="1" pageScale="1" pageWidth="1169" pageHeight="827" math="0" shadow="0">
            <root>
                <mxCell id="0"/>
                <mxCell id="1" parent="0"/>
                <mxCell id="ZecVf7u82yPYtUwHjrdt-2" value="" style="rounded=0;whiteSpace=wrap;html=1;fillColor=#F7F7F7;strokeColor=none;fontColor=#333333;" parent="1" vertex="1">
                    <mxGeometry x="10" y="10" width="660" height="360" as="geometry"/>
                </mxCell>
                <mxCell id="UEzPUAAOIrF-is8g5C7q-74" value="&lt;span style=&quot;background-color: rgb(247 , 247 , 247)&quot;&gt;AWS Cloud&lt;/span&gt;" style="points=[[0,0],[0.25,0],[0.5,0],[0.75,0],[1,0],[1,0.25],[1,0.5],[1,0.75],[1,1],[0.75,1],[0.5,1],[0.25,1],[0,1],[0,0.75],[0,0.5],[0,0.25]];outlineConnect=0;gradientColor=none;html=1;whiteSpace=wrap;fontSize=12;fontStyle=0;shape=mxgraph.aws4.group;grIcon=mxgraph.aws4.group_aws_cloud_alt;strokeColor=#232F3E;fillColor=none;verticalAlign=top;align=left;spacingLeft=30;fontColor=#232F3E;dashed=0;labelBackgroundColor=#ffffff;" parent="1" vertex="1">
                    <mxGeometry x="20" y="20" width="500" height="340" as="geometry"/>
                </mxCell>
                <mxCell id="UEzPUAAOIrF-is8g5C7q-81" value="&lt;span style=&quot;background-color: rgb(247 , 247 , 247)&quot;&gt;Amazon Simple&lt;br&gt;Notification Service&lt;/span&gt;" style="outlineConnect=0;fontColor=#232F3E;gradientColor=#F34482;gradientDirection=north;fillColor=#BC1356;strokeColor=#F7F7F7;dashed=0;verticalLabelPosition=bottom;verticalAlign=top;align=center;html=1;fontSize=12;fontStyle=0;aspect=fixed;shape=mxgraph.aws4.resourceIcon;resIcon=mxgraph.aws4.sns;labelBackgroundColor=#ffffff;" parent="1" vertex="1">
                    <mxGeometry x="410" y="230" width="78" height="78" as="geometry"/>
                </mxCell>
                <mxCell id="UEzPUAAOIrF-is8g5C7q-85" value="&lt;span style=&quot;background-color: rgb(247 , 247 , 247)&quot;&gt;AWS Lambda&lt;/span&gt;" style="outlineConnect=0;fontColor=#232F3E;gradientColor=#F78E04;gradientDirection=north;fillColor=#D05C17;strokeColor=#ffffff;dashed=0;verticalLabelPosition=bottom;verticalAlign=top;align=center;html=1;fontSize=12;fontStyle=0;aspect=fixed;shape=mxgraph.aws4.resourceIcon;resIcon=mxgraph.aws4.lambda;labelBackgroundColor=#ffffff;spacingTop=6;" parent="1" vertex="1">
                    <mxGeometry x="220" y="130" width="78" height="78" as="geometry"/>
                </mxCell>
                <mxCell id="hKzY-lqXmJbzxJ2_rfjv-1" value="" style="edgeStyle=orthogonalEdgeStyle;html=1;endArrow=block;elbow=vertical;startArrow=none;endFill=1;strokeColor=#545B64;rounded=0;" parent="1" source="UEzPUAAOIrF-is8g5C7q-85" target="UEzPUAAOIrF-is8g5C7q-81" edge="1">
                    <mxGeometry width="100" relative="1" as="geometry">
                        <mxPoint x="270" y="340" as="sourcePoint"/>
                        <mxPoint x="370" y="340" as="targetPoint"/>
                        <Array as="points">
                            <mxPoint x="380" y="169"/>
                            <mxPoint x="380" y="269"/>
                        </Array>
                    </mxGeometry>
                </mxCell>
                <mxCell id="hKzY-lqXmJbzxJ2_rfjv-2" value="" style="outlineConnect=0;fontColor=#232F3E;gradientColor=none;fillColor=#3334B9;strokeColor=none;dashed=0;verticalLabelPosition=bottom;verticalAlign=top;align=center;html=1;fontSize=12;fontStyle=0;aspect=fixed;pointerEvents=1;shape=mxgraph.aws4.email;" parent="1" vertex="1">
                    <mxGeometry x="560" y="234.5" width="78" height="69" as="geometry"/>
                </mxCell>
                <mxCell id="hKzY-lqXmJbzxJ2_rfjv-3" value="" style="edgeStyle=orthogonalEdgeStyle;html=1;endArrow=block;elbow=vertical;startArrow=none;endFill=1;strokeColor=#545B64;rounded=0;" parent="1" source="UEzPUAAOIrF-is8g5C7q-81" target="hKzY-lqXmJbzxJ2_rfjv-2" edge="1">
                    <mxGeometry width="100" relative="1" as="geometry">
                        <mxPoint x="270" y="340" as="sourcePoint"/>
                        <mxPoint x="370" y="340" as="targetPoint"/>
                    </mxGeometry>
                </mxCell>
                <mxCell id="hKzY-lqXmJbzxJ2_rfjv-6" value="notification" style="outlineConnect=0;gradientColor=none;fontColor=#545B64;strokeColor=none;fillColor=#879196;dashed=0;verticalLabelPosition=bottom;verticalAlign=top;align=center;html=1;fontSize=12;fontStyle=0;aspect=fixed;shape=mxgraph.aws4.illustration_notification;pointerEvents=1" parent="1" vertex="1">
                    <mxGeometry x="549" y="40" width="100" height="81" as="geometry"/>
                </mxCell>
                <mxCell id="hKzY-lqXmJbzxJ2_rfjv-7" value="" style="edgeStyle=orthogonalEdgeStyle;html=1;endArrow=block;elbow=vertical;startArrow=none;endFill=1;strokeColor=#545B64;rounded=0;" parent="1" source="UEzPUAAOIrF-is8g5C7q-85" target="hKzY-lqXmJbzxJ2_rfjv-6" edge="1">
                    <mxGeometry width="100" relative="1" as="geometry">
                        <mxPoint x="270" y="340" as="sourcePoint"/>
                        <mxPoint x="370" y="340" as="targetPoint"/>
                        <Array as="points">
                            <mxPoint x="380" y="169"/>
                            <mxPoint x="380" y="81"/>
                        </Array>
                    </mxGeometry>
                </mxCell>
                <mxCell id="hKzY-lqXmJbzxJ2_rfjv-8" value="" style="outlineConnect=0;fontColor=#232F3E;gradientColor=none;fillColor=#BC1356;strokeColor=none;dashed=0;verticalLabelPosition=bottom;verticalAlign=top;align=center;html=1;fontSize=12;fontStyle=0;aspect=fixed;pointerEvents=1;shape=mxgraph.aws4.event_time_based;" parent="1" vertex="1">
                    <mxGeometry x="40" y="130" width="78" height="78" as="geometry"/>
                </mxCell>
                <mxCell id="hKzY-lqXmJbzxJ2_rfjv-9" value="" style="edgeStyle=orthogonalEdgeStyle;html=1;endArrow=block;elbow=vertical;startArrow=none;endFill=1;strokeColor=#545B64;rounded=0;" parent="1" source="hKzY-lqXmJbzxJ2_rfjv-8" target="UEzPUAAOIrF-is8g5C7q-85" edge="1">
                    <mxGeometry width="100" relative="1" as="geometry">
                        <mxPoint x="270" y="340" as="sourcePoint"/>
                        <mxPoint x="370" y="340" as="targetPoint"/>
                    </mxGeometry>
                </mxCell>
                <mxCell id="hKzY-lqXmJbzxJ2_rfjv-10" value="Amazon CloudWatch&lt;br&gt;Events (daily)" style="text;html=1;strokeColor=none;fillColor=none;align=center;verticalAlign=middle;whiteSpace=wrap;rounded=0;fontColor=#000000;" parent="1" vertex="1">
                    <mxGeometry x="24" y="220" width="116" height="40" as="geometry"/>
                </mxCell>
                <mxCell id="hKzY-lqXmJbzxJ2_rfjv-11" value="Send e-mail" style="text;html=1;align=center;verticalAlign=middle;whiteSpace=wrap;rounded=0;fontColor=#000000;" parent="1" vertex="1">
                    <mxGeometry x="541" y="304" width="116" height="26" as="geometry"/>
                </mxCell>
                <mxCell id="hKzY-lqXmJbzxJ2_rfjv-12" value="Send to Discord" style="text;html=1;align=center;verticalAlign=middle;whiteSpace=wrap;rounded=0;fontColor=#000000;" parent="1" vertex="1">
                    <mxGeometry x="541" y="150" width="116" height="26" as="geometry"/>
                </mxCell>
                <mxCell id="hKzY-lqXmJbzxJ2_rfjv-13" value="and/or" style="text;html=1;strokeColor=none;fillColor=none;align=center;verticalAlign=middle;whiteSpace=wrap;rounded=0;fontColor=#000000;" parent="1" vertex="1">
                    <mxGeometry x="564" y="194" width="70" height="26" as="geometry"/>
                </mxCell>
                <mxCell id="hKzY-lqXmJbzxJ2_rfjv-14" value="Get billing info&lt;br&gt;(First of month - Today)" style="text;html=1;strokeColor=none;fillColor=none;align=center;verticalAlign=middle;whiteSpace=wrap;rounded=0;fontColor=#000000;" parent="1" vertex="1">
                    <mxGeometry x="194.5" y="240" width="129" height="40" as="geometry"/>
                </mxCell>
                <mxCell id="ZecVf7u82yPYtUwHjrdt-3" value="" style="rounded=0;whiteSpace=wrap;html=1;strokeColor=#F7F7F7;fillColor=#F7F7F7;" parent="1" vertex="1">
                    <mxGeometry x="390" y="314" width="17" height="15" as="geometry"/>
                </mxCell>
                <mxCell id="ZecVf7u82yPYtUwHjrdt-4" value="" style="rounded=0;whiteSpace=wrap;html=1;strokeColor=#F7F7F7;fillColor=#F7F7F7;" parent="1" vertex="1">
                    <mxGeometry x="492" y="313.5" width="17" height="15" as="geometry"/>
                </mxCell>
            </root>
        </mxGraphModel>
    </diagram>
</mxfile>